<svg width="68" height="68" viewBox="0 0 68 68" fill="none" xmlns="http://www.w3.org/2000/svg">
<path d="M48.92 25.4922C56.906 10.9412 63.09 0.589222 63.991 0.262222C65.937 -0.445778 67.93 0.894219 67.913 2.89922C67.907 3.56022 64.977 8.53622 59.738 16.7812L51.573 29.6332L52.701 31.0392C53.978 32.6322 55.031 35.3192 55.031 36.9872C55.031 38.5112 54.912 38.4602 51.952 35.6682C49.064 32.9452 45.123 30.6952 41.452 29.6742C40.112 29.3022 39.016 28.8772 39.016 28.7302C39.016 27.6332 44.436 26.6132 46.828 27.2592C47.699 27.4952 47.925 27.3052 48.92 25.4922Z" fill="black"/>
<path d="M14.763 31.0922C15.392 30.8322 16.113 30.1112 16.373 29.4822C16.956 28.0762 16.982 28.0762 17.723 29.5092C18.055 30.1502 18.885 30.9632 19.568 31.3172L20.81 31.9592L19.412 32.6762C18.56 33.1132 17.917 33.7802 17.765 34.3842C17.441 35.6752 16.907 35.6402 16.203 34.2792C15.892 33.6762 15.184 32.9772 14.631 32.7252C13.323 32.1292 13.36 31.6732 14.763 31.0922Z" fill="black"/>
<path d="M2.24796 34.3722C3.36696 33.9252 3.94196 33.3662 4.45596 32.2272C5.31796 30.3162 5.52397 30.3122 6.37097 32.1882C6.84897 33.2482 7.52497 33.9202 8.67197 34.4762L10.297 35.2632L8.59897 36.1292C7.36197 36.7612 6.72697 37.4102 6.25897 38.5252C5.45297 40.4452 5.26697 40.4392 4.47797 38.4672C3.98497 37.2352 3.48595 36.7222 2.29095 36.2212C0.356956 35.4082 0.349956 35.1322 2.24796 34.3722Z" fill="black"/>
<path d="M19.227 39.9542C23.499 34.8082 25.322 33.4572 29.445 32.3822C35.697 30.7532 45.013 33.5762 50.084 38.6362C60.549 49.0782 54.01 67.4062 39.819 67.4062H38.443L40.447 65.6532C42.294 64.0382 44.875 60.6902 44.875 59.9112C44.875 59.7292 43.756 60.4602 42.389 61.5342C29.482 71.6782 8.86698 67.8102 1.39798 53.8442L0.307983 51.8052L1.39996 51.5832C9.30596 49.9712 12.808 47.6872 19.227 39.9542Z" fill="black"/>
<path d="M59.901 44.0282C60.665 43.5782 61.365 42.7942 61.506 42.2322C61.837 40.9132 62.25 40.9732 62.852 42.4252C63.132 43.1032 63.93 43.9172 64.703 44.3132L66.06 45.0092L64.644 45.8452C63.865 46.3052 63.025 47.1252 62.778 47.6682C62.195 48.9472 61.874 48.9142 61.295 47.5182C61.035 46.8892 60.314 46.1682 59.685 45.9082C58.217 45.3002 58.251 45.0022 59.901 44.0282Z" fill="black"/>
</svg>
