<svg width="431" height="68" viewBox="0 0 431 68" fill="none" xmlns="http://www.w3.org/2000/svg">
<path d="M48.92 25.4922C56.906 10.9412 63.09 0.589222 63.991 0.262222C65.937 -0.445778 67.93 0.894219 67.913 2.89922C67.907 3.56022 64.977 8.53622 59.738 16.7812L51.573 29.6332L52.701 31.0392C53.978 32.6322 55.031 35.3192 55.031 36.9872C55.031 38.5112 54.912 38.4602 51.952 35.6682C49.064 32.9452 45.123 30.6952 41.452 29.6742C40.112 29.3022 39.016 28.8772 39.016 28.7302C39.016 27.6332 44.436 26.6132 46.828 27.2592C47.699 27.4952 47.925 27.3052 48.92 25.4922Z" fill="black"/>
<path d="M14.763 31.0922C15.392 30.8322 16.113 30.1112 16.373 29.4822C16.956 28.0762 16.982 28.0762 17.723 29.5092C18.055 30.1502 18.885 30.9632 19.568 31.3172L20.81 31.9592L19.412 32.6762C18.56 33.1132 17.917 33.7802 17.765 34.3842C17.441 35.6752 16.907 35.6402 16.203 34.2792C15.892 33.6762 15.184 32.9772 14.631 32.7252C13.323 32.1292 13.36 31.6732 14.763 31.0922Z" fill="black"/>
<path d="M2.24796 34.3722C3.36696 33.9252 3.94196 33.3662 4.45596 32.2272C5.31796 30.3162 5.52397 30.3122 6.37097 32.1882C6.84897 33.2482 7.52497 33.9202 8.67197 34.4762L10.297 35.2632L8.59897 36.1292C7.36197 36.7612 6.72697 37.4102 6.25897 38.5252C5.45297 40.4452 5.26697 40.4392 4.47797 38.4672C3.98497 37.2352 3.48595 36.7222 2.29095 36.2212C0.356956 35.4082 0.349956 35.1322 2.24796 34.3722Z" fill="black"/>
<path d="M19.227 39.9542C23.499 34.8082 25.322 33.4572 29.445 32.3822C35.697 30.7532 45.013 33.5762 50.084 38.6362C60.549 49.0782 54.01 67.4062 39.819 67.4062H38.443L40.447 65.6532C42.294 64.0382 44.875 60.6902 44.875 59.9112C44.875 59.7292 43.756 60.4602 42.389 61.5342C29.482 71.6782 8.86698 67.8102 1.39798 53.8442L0.307983 51.8052L1.39996 51.5832C9.30596 49.9712 12.808 47.6872 19.227 39.9542Z" fill="black"/>
<path d="M59.901 44.0282C60.665 43.5782 61.365 42.7942 61.506 42.2322C61.837 40.9132 62.25 40.9732 62.852 42.4252C63.132 43.1032 63.93 43.9172 64.703 44.3132L66.06 45.0092L64.644 45.8452C63.865 46.3052 63.025 47.1252 62.778 47.6682C62.195 48.9472 61.874 48.9142 61.295 47.5182C61.035 46.8892 60.314 46.1682 59.685 45.9082C58.217 45.3002 58.251 45.0022 59.901 44.0282Z" fill="black"/>
<path d="M401.636 56.9402C402.115 57.3791 402.734 57.5985 403.492 57.5985C404.529 57.5985 405.327 57.2993 405.886 56.7008C406.484 56.0624 406.923 55.2245 407.203 54.1871C407.602 52.6709 407.921 50.7357 408.16 48.3816C408.439 45.9876 408.599 43.5338 408.639 41.0201H408.878C410.913 44.5712 412.948 47.5238 414.983 49.8779C417.018 52.232 418.973 54.0075 420.848 55.2045C422.764 56.3616 424.499 56.9402 426.055 56.9402C427.292 56.9402 428.23 56.621 428.868 55.9826C429.547 55.3043 429.886 54.4464 429.886 53.409C429.886 52.1322 429.148 50.5562 427.671 48.6809C426.235 46.7657 424.14 44.7507 421.387 42.636C418.908 40.6673 415.979 38.7819 412.601 36.9797C418.203 34.5027 422.529 32.0789 425.577 29.7084C428.848 27.1947 430.484 24.9204 430.484 22.8855C430.484 21.8481 430.205 20.9703 429.646 20.2521C429.088 19.5339 428.23 19.1748 427.073 19.1748C425.596 19.1748 423.901 19.6536 421.986 20.6112C420.11 21.5688 418.035 23.1049 415.761 25.2196C413.527 27.3343 411.113 30.1473 408.519 33.6585H408.28C408.679 30.4266 408.958 27.3942 409.118 24.5613C409.317 21.7284 409.417 19.075 409.417 16.6012C409.417 14.1274 409.118 12.3917 408.519 11.3942C407.921 10.3568 407.063 9.83813 405.946 9.83813C404.709 9.83813 403.711 10.4765 402.953 11.7533C402.195 12.9902 401.557 14.9453 401.038 17.6187C400.559 20.0925 400.16 23.2645 399.841 27.1348C399.562 31.0051 399.422 35.035 399.422 39.2245C399.422 42.6161 399.542 45.7083 399.781 48.5013C400.021 51.2943 400.3 53.429 400.619 54.9053C400.819 55.7831 401.158 56.4614 401.636 56.9402Z" fill="black"/>
<path d="M326.575 16.0027C326.384 17.4864 326.339 19.0607 326.439 20.7257C325.908 20.6355 325.335 20.5574 324.719 20.4915C323.642 20.3319 322.485 20.2521 321.248 20.2521C319.373 20.2521 317.876 20.691 316.759 21.5688C315.642 22.4067 315.083 23.6037 315.083 25.1598C315.083 26.5962 315.582 27.6535 316.58 28.3318C317.577 29.0101 318.994 29.3493 320.829 29.3493C323.13 29.3493 325.148 29.0426 326.883 28.4293C326.598 30.1074 326.336 31.8305 326.096 33.5986C325.816 35.9527 325.597 38.247 325.437 40.4814C325.278 42.6759 325.198 44.651 325.198 46.4066C325.198 47.444 325.218 48.6011 325.258 49.8779C325.338 51.1547 325.517 52.3916 325.797 53.5886C326.116 54.7457 326.614 55.7033 327.293 56.4614C328.011 57.2195 328.989 57.5985 330.225 57.5985C331.782 57.5985 332.959 56.8604 333.757 55.3841C334.555 53.9078 334.954 51.8928 334.954 49.3392C334.954 47.7831 334.874 46.0275 334.714 44.0724C334.555 42.1173 334.335 40.1024 334.056 38.0275C333.777 35.9527 333.457 33.9577 333.098 32.0425C332.88 30.7072 332.653 29.4742 332.416 28.3436C333.135 28.4619 333.861 28.5577 334.594 28.6311C335.831 28.7109 336.988 28.7508 338.066 28.7508C339.861 28.7508 341.358 28.3717 342.555 27.6136C343.752 26.8555 344.35 25.7383 344.35 24.262C344.35 22.7059 343.831 21.6087 342.794 20.9703C341.796 20.292 340.44 19.9528 338.724 19.9528C336.56 19.9528 334.574 20.1939 332.765 20.6762C333.546 18.9921 333.936 17.0153 333.936 14.7458C333.936 13.469 333.677 12.4715 333.158 11.7533C332.639 11.0351 331.821 10.676 330.704 10.676C329.467 10.676 328.51 11.1748 327.831 12.1723C327.193 13.1299 326.774 14.4067 326.575 16.0027Z" fill="black"/>
<path fill-rule="evenodd" clip-rule="evenodd" d="M95.157 55.9227C96.7929 56.8404 98.8478 57.2993 101.322 57.2993C103.716 57.2993 106.07 56.9402 108.384 56.222C110.698 55.4639 112.773 54.4265 114.608 53.1098C116.484 51.7532 117.96 50.1771 119.037 48.3816C120.154 46.5462 120.713 44.5313 120.713 42.3368C120.713 39.5837 119.915 37.4689 118.319 35.9926C116.763 34.4764 114.568 33.5587 111.736 33.2395V33.0001C114.329 31.9627 116.424 30.5662 118.02 28.8106C119.616 27.055 120.414 24.8206 120.414 22.1074C120.414 20.3917 120.015 18.8356 119.217 17.4391C118.459 16.0426 117.202 14.9254 115.446 14.0875C113.731 13.2097 111.436 12.7708 108.563 12.7708C104.254 12.7708 100.923 13.2695 98.5685 14.267C96.2144 15.2645 94.4987 16.5813 93.4214 18.2172C92.7431 19.2945 92.1246 20.7109 91.566 22.4665C91.0473 24.1822 90.6483 26.4565 90.369 29.2894C90.0897 32.0824 89.9501 35.6335 89.9501 39.9427C89.9501 42.4565 90.0698 44.6909 90.3092 46.646C90.5885 48.5612 91.0074 50.1971 91.566 51.5537C92.364 53.5088 93.561 54.9651 95.157 55.9227ZM108.264 49.1597C106.788 49.7981 105.092 50.1173 103.177 50.1173C101.222 50.1173 99.7655 49.6584 98.8079 48.7407C97.8503 47.7831 97.3715 46.1871 97.3715 43.9527C97.3715 41.5986 97.97 39.9427 99.167 38.9851C100.404 37.9876 102.06 37.4889 104.135 37.4889C107.207 37.4889 109.461 38.0076 110.898 39.045C112.374 40.0425 113.112 41.2994 113.112 42.8156C113.112 44.2121 112.673 45.4689 111.795 46.5861C110.957 47.6634 109.78 48.5213 108.264 49.1597ZM110.179 29.3493C108.384 30.5463 106.13 31.1448 103.416 31.1448C101.701 31.1448 100.324 30.7857 99.2867 30.0675C98.2892 29.3094 97.7904 27.9927 97.7904 26.1174C97.7904 23.8032 98.5685 22.1673 100.125 21.2097C101.681 20.2521 103.676 19.7733 106.11 19.7733C108.344 19.7733 110.04 20.2122 111.197 21.09C112.354 21.9678 112.933 23.1249 112.933 24.5613C112.933 26.5164 112.015 28.1124 110.179 29.3493Z" fill="black"/>
<path d="M128.427 21.7483C127.708 23.4241 127.349 26.1772 127.349 30.0076C127.349 32.1223 127.449 34.4964 127.649 37.1298C127.848 39.7632 128.107 42.3368 128.427 44.8505C128.746 47.3642 129.065 49.5387 129.384 51.3741C129.783 53.409 130.362 54.8853 131.12 55.803C131.878 56.6808 132.955 57.1197 134.352 57.1197C135.589 57.1197 136.546 56.6409 137.225 55.6833C137.903 54.7257 138.242 53.1497 138.242 50.9552C138.242 49.7183 138.142 48.3617 137.943 46.8854C137.743 45.4091 137.524 43.9328 137.285 42.4565C137.045 40.9403 136.826 39.5437 136.626 38.2669C136.427 36.9901 136.327 35.9328 136.327 35.0949C136.327 32.9802 136.686 31.2046 137.404 29.7682C138.162 28.2919 139.12 27.5538 140.277 27.5538C141.235 27.5538 141.933 28.0126 142.372 28.9303C142.811 29.848 142.95 31.4839 142.791 33.838C142.631 36.0724 142.791 37.6285 143.27 38.5063C143.788 39.3841 144.586 39.8231 145.664 39.8231C147.14 39.8231 148.317 39.0649 149.195 37.5487C150.072 36.0325 150.511 33.3592 150.511 29.5288C150.511 26.656 149.953 24.262 148.836 22.3468C147.718 20.3917 145.983 19.4142 143.629 19.4142C141.634 19.4142 139.918 20.1922 138.482 21.7483C137.262 23.1075 136.316 24.695 135.644 26.5109C135.593 25.5503 135.461 24.6012 135.25 23.6635C134.97 22.3867 134.531 21.3294 133.933 20.4915C133.334 19.6137 132.516 19.1748 131.479 19.1748C130.162 19.1748 129.145 20.0326 128.427 21.7483Z" fill="black"/>
<path fill-rule="evenodd" clip-rule="evenodd" d="M170.357 57.1796C167.165 57.1796 164.372 56.4813 161.978 55.0848C159.624 53.6484 157.788 51.6135 156.472 48.9801C155.195 46.3467 154.556 43.2146 154.556 39.5836C154.556 35.7931 155.215 32.4814 156.531 29.6485C157.848 26.8156 159.704 24.6012 162.098 23.0052C164.531 21.4092 167.344 20.6112 170.536 20.6112C173.968 20.6112 176.94 21.3892 179.454 22.9453C181.968 24.4615 183.923 26.5962 185.319 29.3493C186.716 32.1024 187.414 35.3143 187.414 38.9851C187.414 42.7358 186.716 45.9677 185.319 48.6809C183.923 51.3941 181.948 53.4888 179.394 54.9651C176.841 56.4414 173.828 57.1796 170.357 57.1796ZM171.195 49.0998C173.669 49.0998 175.624 48.1223 177.06 46.1672C178.536 44.1722 179.275 41.5388 179.275 38.2669C179.275 34.9552 178.536 32.3218 177.06 30.3667C175.624 28.4116 173.669 27.4341 171.195 27.4341C168.641 27.4341 166.626 28.4116 165.15 30.3667C163.674 32.3218 162.935 34.9552 162.935 38.2669C162.935 41.5388 163.674 44.1722 165.15 46.1672C166.626 48.1223 168.641 49.0998 171.195 49.0998Z" fill="black"/>
<path fill-rule="evenodd" clip-rule="evenodd" d="M199.618 55.0848C202.012 56.4813 204.805 57.1796 207.997 57.1796C211.468 57.1796 214.481 56.4414 217.034 54.9651C219.588 53.4888 221.563 51.3941 222.96 48.6809C224.356 45.9677 225.054 42.7358 225.054 38.9851C225.054 35.3143 224.356 32.1024 222.96 29.3493C221.563 26.5962 219.608 24.4615 217.094 22.9453C214.58 21.3892 211.608 20.6112 208.177 20.6112C204.985 20.6112 202.172 21.4092 199.738 23.0052C197.344 24.6012 195.488 26.8156 194.172 29.6485C192.855 32.4814 192.197 35.7931 192.197 39.5836C192.197 43.2146 192.835 46.3467 194.112 48.9801C195.428 51.6135 197.264 53.6484 199.618 55.0848ZM214.7 46.1672C213.264 48.1223 211.309 49.0998 208.835 49.0998C206.281 49.0998 204.266 48.1223 202.79 46.1672C201.314 44.1722 200.576 41.5388 200.576 38.2669C200.576 34.9552 201.314 32.3218 202.79 30.3667C204.266 28.4116 206.281 27.4341 208.835 27.4341C211.309 27.4341 213.264 28.4116 214.7 30.3667C216.176 32.3218 216.915 34.9552 216.915 38.2669C216.915 41.5388 216.176 44.1722 214.7 46.1672Z" fill="black"/>
<path d="M258.984 25.1598C258.348 25.9995 257.833 26.9041 257.44 27.8736C257.041 25.8189 256.258 24.1362 255.093 22.8256C253.497 20.9902 251.283 20.0725 248.45 20.0725C246.295 20.0725 244.34 20.8107 242.585 22.287C241.072 23.5244 239.915 25.1913 239.113 27.2876C239.112 24.9471 238.872 23.2204 238.395 22.1074C237.916 20.9503 237.098 20.3718 235.941 20.3718C234.545 20.3718 233.547 21.0501 232.949 22.4067C232.35 23.7633 231.931 25.4391 231.692 27.4341C231.493 29.3892 231.333 31.464 231.213 33.6585C231.133 35.853 231.094 37.8879 231.094 39.7632C231.094 41.5986 231.133 43.454 231.213 45.3293C231.293 47.1647 231.413 49.02 231.572 50.8953C231.772 53.01 232.191 54.5462 232.829 55.5038C233.507 56.4614 234.585 56.9402 236.061 56.9402C237.298 56.9402 238.256 56.4215 238.934 55.3841C239.652 54.3467 240.031 52.631 240.071 50.237C240.151 49.1198 240.171 47.7233 240.131 46.0475L240.011 41.0201C240.011 39.3043 240.051 37.8679 240.131 36.7108C240.37 33.8779 240.989 31.6635 241.986 30.0675C243.024 28.4715 244.4 27.6735 246.116 27.6735C247.592 27.6735 248.689 28.272 249.408 29.469C250.166 30.666 250.625 32.5413 250.784 35.0949C250.864 36.3717 250.884 37.9876 250.844 39.9427C250.844 41.858 250.824 43.7931 250.784 45.7482C250.744 47.7033 250.764 49.3991 250.844 50.8355C250.924 52.5512 251.263 53.808 251.862 54.606C252.5 55.404 253.358 55.803 254.435 55.803C255.393 55.803 256.151 55.5437 256.709 55.025C257.308 54.5063 257.767 53.7282 258.086 52.6908C258.565 51.2145 258.864 49.3392 258.984 47.0649C259.103 44.7507 259.243 42.1173 259.403 39.1647C259.602 35.853 260.241 33.3393 261.318 31.6236C262.435 29.868 263.832 28.9902 265.507 28.9902C267.024 28.9902 268.201 29.5687 269.039 30.7258C269.876 31.843 270.295 33.439 270.295 35.5138C270.295 36.9103 270.196 38.3866 269.996 39.9427C269.797 41.4989 269.577 43.035 269.338 44.5512C269.098 46.0275 268.879 47.4041 268.679 48.6809C268.48 49.9178 268.38 50.9352 268.38 51.7332C268.38 53.4489 268.679 54.7656 269.278 55.6833C269.876 56.601 270.694 57.0599 271.732 57.0599C272.969 57.0599 273.986 56.6409 274.784 55.803C275.622 54.9651 276.24 53.7482 276.639 52.1522C276.919 50.9951 277.178 49.5587 277.418 47.843C277.657 46.1273 277.856 44.2719 278.016 42.2769C278.176 40.2819 278.255 38.3068 278.255 36.3517C278.255 32.5612 277.777 29.5288 276.819 27.2545C275.901 24.9802 274.644 23.3443 273.048 22.3468C271.452 21.3493 269.617 20.8506 267.542 20.8506C265.787 20.8506 264.171 21.2496 262.694 22.0476C261.258 22.8057 260.021 23.8431 258.984 25.1598Z" fill="black"/>
<path d="M308.369 21.09C306.813 20.0526 304.26 19.5339 300.709 19.5339C295.561 19.5339 291.591 20.691 288.798 23.0052C286.005 25.2795 284.609 28.272 284.609 31.9827C284.609 34.3368 285.088 36.1921 286.045 37.5487C287.003 38.8654 288.359 39.8231 290.115 40.4216C291.871 40.9802 293.945 41.3792 296.339 41.6186C298.335 41.8181 299.851 42.0974 300.888 42.4565C301.926 42.7757 302.644 43.1946 303.043 43.7133C303.442 44.232 303.641 44.9103 303.641 45.7482C303.641 48.222 301.646 49.4589 297.656 49.4589C296.419 49.4589 295.222 49.3392 294.065 49.0998C292.908 48.8604 291.811 48.641 290.773 48.4415C289.736 48.2021 288.758 48.0824 287.841 48.0824C286.883 48.0824 286.045 48.3816 285.327 48.9801C284.649 49.5387 284.31 50.3367 284.31 51.3741C284.31 52.5711 284.689 53.6085 285.447 54.4863C286.245 55.3641 287.522 56.0424 289.277 56.5212C291.033 57 293.407 57.2394 296.399 57.2394C301.108 57.2394 304.798 56.3217 307.472 54.4863C310.145 52.6509 311.482 49.838 311.482 46.0475C311.482 43.6535 311.023 41.7782 310.105 40.4216C309.187 39.025 307.791 37.9876 305.916 37.3093C304.08 36.5911 301.746 36.0724 298.913 35.7532C296.359 35.434 294.624 34.9552 293.706 34.3168C292.828 33.6385 292.389 32.7208 292.389 31.5637C292.389 30.3268 292.888 29.3094 293.886 28.5114C294.883 27.7134 296.399 27.3144 298.434 27.3144C300.19 27.3144 301.726 27.4939 303.043 27.853C304.399 28.2121 305.696 28.3917 306.933 28.3917C308.13 28.3917 309.048 28.0924 309.686 27.4939C310.364 26.8555 310.704 26.0575 310.704 25.0999C310.704 23.464 309.925 22.1274 308.369 21.09Z" fill="black"/>
<path d="M357.894 12.4117C357.216 11.5339 356.079 11.095 354.483 11.095C353.006 11.095 351.809 11.474 350.892 12.2321C349.974 12.9902 349.515 14.1274 349.515 15.6436C349.515 16.8007 349.894 17.8182 350.652 18.696C351.41 19.5339 352.547 19.9528 354.064 19.9528C355.62 19.9528 356.817 19.5738 357.655 18.8157C358.532 18.0177 358.971 16.9005 358.971 15.464C358.971 14.3069 358.612 13.2895 357.894 12.4117Z" fill="black"/>
<path d="M357.834 28.0326C357.116 25.6386 356.118 24.4416 354.842 24.4416C353.206 24.4416 351.849 26.0176 350.772 29.1697C349.734 32.2819 349.216 37.05 349.216 43.4739C349.216 48.7008 349.555 52.3716 350.233 54.4863C350.911 56.5611 351.969 57.5985 353.405 57.5985C355.281 57.5985 356.677 56.1821 357.595 53.3492C358.512 50.5163 358.971 45.8879 358.971 39.464C358.971 34.237 358.592 30.4266 357.834 28.0326Z" fill="black"/>
<path d="M381.005 57.6584C375.499 57.6584 371.449 56.222 368.856 53.3492C366.302 50.4764 365.025 46.4864 365.025 41.3792C365.025 37.429 365.784 33.9378 367.3 30.9054C368.856 27.8331 371.07 25.4391 373.943 23.7234C376.856 21.9678 380.327 21.09 384.357 21.09C387.988 21.09 390.741 21.6885 392.616 22.8855C394.532 24.0426 395.489 25.5388 395.489 27.3742C395.489 28.4914 395.13 29.3892 394.412 30.0675C393.734 30.7059 392.716 31.0251 391.36 31.0251C390.601 31.0251 389.823 30.9054 389.025 30.666C388.267 30.4266 387.429 30.1872 386.512 29.9478C385.594 29.7084 384.497 29.5887 383.22 29.5887C379.908 29.5887 377.414 30.4665 375.739 32.2221C374.103 33.9777 373.285 36.5113 373.285 39.8231C373.285 42.9752 374.083 45.2694 375.679 46.7058C377.275 48.1023 379.449 48.8006 382.202 48.8006C383.559 48.8006 384.736 48.6609 385.734 48.3816C386.771 48.0624 387.729 47.7632 388.606 47.4839C389.524 47.1647 390.442 47.0051 391.36 47.0051C392.277 47.0051 393.035 47.3043 393.634 47.9028C394.232 48.4614 394.532 49.2794 394.532 50.3567C394.532 51.5936 394.033 52.7706 393.035 53.8878C392.038 55.005 390.542 55.9227 388.547 56.6409C386.552 57.3192 384.038 57.6584 381.005 57.6584Z" fill="black"/>
</svg>
